HIERARCHY
ROOT Hips
{
    OFFSET   0.000000   0.000000   0.000000
    CHANNELS 6 Xposition Yposition Zposition Zrotation Xrotation Yrotation
    JOINT Chest
    {
        OFFSET   0.000000   8.007230   0.000000
        CHANNELS 3 Zrotation Xrotation Yrotation
        JOINT Chest2
        {
            OFFSET   0.000000  22.077100   0.000000
            CHANNELS 3 Zrotation Xrotation Yrotation
            JOINT Neck
            {
                OFFSET   0.000000  23.255100   0.000000
                CHANNELS 3 Zrotation Xrotation Yrotation
                JOINT Head
                {
                    OFFSET   0.000000  14.370100   1.956600
                    CHANNELS 3 Zrotation Xrotation Yrotation
                    End Site
                    {
                        OFFSET   0.000000  19.566000   0.000000
                    }
                }
            }
            JOINT LeftCollar
            {
                OFFSET   3.911900  19.017000  -0.467063
                CHANNELS 3 Zrotation Xrotation Yrotation
                JOINT LeftShoulder
                {
                    OFFSET  10.383700   0.000000   0.000000
                    CHANNELS 3 Zrotation Xrotation Yrotation
                    JOINT LeftElbow
                    {
                        OFFSET  26.662100   0.001193   0.000980
                        CHANNELS 3 Zrotation Xrotation Yrotation
                        JOINT LeftWrist
                        {
                            OFFSET  28.869000  -0.000059  -0.000082
                            CHANNELS 3 Zrotation Xrotation Yrotation
                            JOINT LeftFinger0
                            {
                                OFFSET   2.044650  -2.323450   3.252850
                                CHANNELS 3 Zrotation Xrotation Yrotation
                                JOINT LeftFinger01
                                {
                                    OFFSET   3.088130   0.000000   0.000000
                                    CHANNELS 3 Zrotation Xrotation Yrotation
                                    JOINT LeftFinger02
                                    {
                                        OFFSET   2.639460   0.000000   0.000000
                                        CHANNELS 3 Zrotation Xrotation Yrotation
                                        End Site
                                        {
                                            OFFSET   2.582190   0.000000   0.000000
                                        }
                                    }
                                }
                            }
                            JOINT LeftFinger1
                            {
                                OFFSET   8.364480   0.000000   3.252850
                                CHANNELS 3 Zrotation Xrotation Yrotation
                                JOINT LeftFinger11
                                {
                                    OFFSET   4.646930   0.000000   0.000000
                                    CHANNELS 3 Zrotation Xrotation Yrotation
                                    JOINT LeftFinger12
                                    {
                                        OFFSET   2.323470   0.000000   0.000000
                                        CHANNELS 3 Zrotation Xrotation Yrotation
                                        End Site
                                        {
                                            OFFSET   2.273050   0.000000   0.000000
                                        }
                                    }
                                }
                            }
                            JOINT LeftFinger2
                            {
                                OFFSET   8.364490   0.000016   1.078090
                                CHANNELS 3 Zrotation Xrotation Yrotation
                                JOINT LeftFinger21
                                {
                                    OFFSET   5.111610   0.000000   0.000000
                                    CHANNELS 3 Zrotation Xrotation Yrotation
                                    JOINT LeftFinger22
                                    {
                                        OFFSET   2.788150   0.000016   0.000000
                                        CHANNELS 3 Zrotation Xrotation Yrotation
                                        End Site
                                        {
                                            OFFSET   2.727660   0.000000   0.000000
                                        }
                                    }
                                }
                            }
                            JOINT LeftFinger3
                            {
                                OFFSET   7.899780   0.000015  -1.078090
                                CHANNELS 3 Zrotation Xrotation Yrotation
                                JOINT LeftFinger31
                                {
                                    OFFSET   4.646930   0.000000   0.000000
                                    CHANNELS 3 Zrotation Xrotation Yrotation
                                    JOINT LeftFinger32
                                    {
                                        OFFSET   2.323470   0.000000   0.000000
                                        CHANNELS 3 Zrotation Xrotation Yrotation
                                        End Site
                                        {
                                            OFFSET   2.273050   0.000000   0.000000
                                        }
                                    }
                                }
                            }
                            JOINT LeftFinger4
                            {
                                OFFSET   7.435090   0.000000  -3.252850
                                CHANNELS 3 Zrotation Xrotation Yrotation
                                JOINT LeftFinger41
                                {
                                    OFFSET   3.717550   0.000000   0.000000
                                    CHANNELS 3 Zrotation Xrotation Yrotation
                                    JOINT LeftFinger42
                                    {
                                        OFFSET   1.858770   0.000000   0.000000
                                        CHANNELS 3 Zrotation Xrotation Yrotation
                                        End Site
                                        {
                                            OFFSET   1.818440   0.000000   0.000000
                                        }
                                    }
                                }
                            }
                        }
                    }
                }
            }
            JOINT RightCollar
            {
                OFFSET  -3.911910  19.017000  -0.467062
                CHANNELS 3 Zrotation Xrotation Yrotation
                JOINT RightShoulder
                {
                    OFFSET -10.383700   0.000014   0.000000
                    CHANNELS 3 Zrotation Xrotation Yrotation
                    JOINT RightElbow
                    {
                        OFFSET -26.662100   0.001225   0.001091
                        CHANNELS 3 Zrotation Xrotation Yrotation
                        JOINT RightWrist
                        {
                            OFFSET -28.869000  -0.000020  -0.000085
                            CHANNELS 3 Zrotation Xrotation Yrotation
                            JOINT RightFinger0
                            {
                                OFFSET  -2.044650  -2.323490   3.252850
                                CHANNELS 3 Zrotation Xrotation Yrotation
                                JOINT RightFinger01
                                {
                                    OFFSET  -3.088130   0.000000   0.000000
                                    CHANNELS 3 Zrotation Xrotation Yrotation
                                    JOINT RightFinger02
                                    {
                                        OFFSET  -2.639460   0.000000   0.000000
                                        CHANNELS 3 Zrotation Xrotation Yrotation
                                        End Site
                                        {
                                            OFFSET  -2.582190   0.000000   0.000000
                                        }
                                    }
                                }
                            }
                            JOINT RightFinger1
                            {
                                OFFSET  -8.364480   0.000000   3.252850
                                CHANNELS 3 Zrotation Xrotation Yrotation
                                JOINT RightFinger11
                                {
                                    OFFSET  -4.646930   0.000000   0.000000
                                    CHANNELS 3 Zrotation Xrotation Yrotation
                                    JOINT RightFinger12
                                    {
                                        OFFSET  -2.323470   0.000000   0.000000
                                        CHANNELS 3 Zrotation Xrotation Yrotation
                                        End Site
                                        {
                                            OFFSET  -2.273050   0.000000   0.000000
                                        }
                                    }
                                }
                            }
                            JOINT RightFinger2
                            {
                                OFFSET  -8.364480   0.000000   1.078090
                                CHANNELS 3 Zrotation Xrotation Yrotation
                                JOINT RightFinger21
                                {
                                    OFFSET  -5.111620   0.000000   0.000000
                                    CHANNELS 3 Zrotation Xrotation Yrotation
                                    JOINT RightFinger22
                                    {
                                        OFFSET  -2.788160   0.000000   0.000000
                                        CHANNELS 3 Zrotation Xrotation Yrotation
                                        End Site
                                        {
                                            OFFSET  -2.727660   0.000000   0.000000
                                        }
                                    }
                                }
                            }
                            JOINT RightFinger3
                            {
                                OFFSET  -7.899780   0.000000  -1.078090
                                CHANNELS 3 Zrotation Xrotation Yrotation
                                JOINT RightFinger31
                                {
                                    OFFSET  -4.646930   0.000000   0.000000
                                    CHANNELS 3 Zrotation Xrotation Yrotation
                                    JOINT RightFinger32
                                    {
                                        OFFSET  -2.323470   0.000000   0.000000
                                        CHANNELS 3 Zrotation Xrotation Yrotation
                                        End Site
                                        {
                                            OFFSET  -2.273050   0.000000   0.000000
                                        }
                                    }
                                }
                            }
                            JOINT RightFinger4
                            {
                                OFFSET  -7.435090   0.000000  -3.252850
                                CHANNELS 3 Zrotation Xrotation Yrotation
                                JOINT RightFinger41
                                {
                                    OFFSET  -3.717550   0.000000   0.000000
                                    CHANNELS 3 Zrotation Xrotation Yrotation
                                    JOINT RightFinger42
                                    {
                                        OFFSET  -1.858760   0.000000   0.000000
                                        CHANNELS 3 Zrotation Xrotation Yrotation
                                        End Site
                                        {
                                            OFFSET  -1.818440   0.000000   0.000000
                                        }
                                    }
                                }
                            }
                        }
                    }
                }
            }
        }
    }
    JOINT LeftHip
    {
        OFFSET   9.783030   0.000000   0.000000
        CHANNELS 3 Zrotation Xrotation Yrotation
        JOINT LeftKnee
        {
            OFFSET   0.000063 -41.789100   0.000608
            CHANNELS 3 Zrotation Xrotation Yrotation
            JOINT LeftAnkle
            {
                OFFSET   0.000048 -41.133200  -0.000184
                CHANNELS 3 Zrotation Xrotation Yrotation
                JOINT LeftToe
                {
                    OFFSET   0.000000  -6.358960  14.674500
                    CHANNELS 3 Zrotation Xrotation Yrotation
                    End Site
                    {
                        OFFSET   0.000000   0.000000   3.913200
                    }
                }
            }
        }
    }
    JOINT RightHip
    {
        OFFSET  -9.783030   0.000000   0.000000
        CHANNELS 3 Zrotation Xrotation Yrotation
        JOINT RightKnee
        {
            OFFSET   0.000071 -41.789100   0.001239
            CHANNELS 3 Zrotation Xrotation Yrotation
            JOINT RightAnkle
            {
                OFFSET   0.000037 -41.133200  -0.000166
                CHANNELS 3 Zrotation Xrotation Yrotation
                JOINT RightToe
                {
                    OFFSET   0.000000  -6.358960  14.674500
                    CHANNELS 3 Zrotation Xrotation Yrotation
                    End Site
                    {
                        OFFSET   0.000000   0.000000   3.913200
                    }
                }
            }
        }
    }
}
MOTION
Frames: 5
Frame Time:   0.016667
 -0.402675  90.053800  -0.621733  -0.655351  -0.740220  -3.108780  -0.203829   2.266570  -0.522934  -0.387382   4.534870  -1.039010   1.180870  -0.556600   0.003140   1.939590  -1.124130   6.646730  -4.393880  -1.868450   7.646050 -73.039500  15.123700  -0.741601  -2.588640  -1.466570 -13.314500  16.036600   1.516190   7.637060  38.042800  30.432100 -63.215700 -30.538400  -0.000212   0.002092 -10.266900  -0.008061  -0.001141 -32.633400   6.738300 -10.401400 -27.202800   0.001298  -0.004163 -19.029600   0.001921   0.007449 -28.757400   0.589150  -1.087660 -40.784000  -0.002151   0.000814 -27.157800  -0.004089   0.005975 -27.657800  -0.787367   1.498090 -30.103500  -0.002467   0.012060 -20.055900   0.000000  -0.001364 -28.249500  -0.802816   1.490020 -42.390000  -0.003067  -0.000992 -28.231700  -0.000422  -0.000947   8.636170   0.887700   6.133520  68.647700  11.306800  -1.411470   2.279640  -5.970140  11.282200  -9.216350 -25.708700  -2.176160 -35.882100  20.201500  48.837100  29.602900   0.001225  -0.006305   9.801470  -0.003450  -0.004047  23.633800   0.750831   1.715230  19.345900  -0.002722  -0.003834  13.551200  -0.004235  -0.002311  21.221800  -1.952320  -5.013820  21.307300  -0.008785  -0.000703  14.190600  -0.007806  -0.000354  24.725000  -4.146250  -8.916670  25.053800  -0.000384  -0.000149  16.685900  -0.009572  -0.000000  33.849900  -5.509380  -8.147880  51.362900   0.000372   0.000614  34.207700   0.000434   0.007987  -0.614016   2.671080   2.583660   0.311937   0.157689  14.975000  -3.827910  -3.839800   4.801580  -0.000000   0.000000   0.000000   1.475560   1.805620  -4.900930   0.547550   1.183240  -6.385500 -10.607900   0.903009   3.268720   0.000000   0.000000   0.000000
 -0.411419  90.053800  -0.621890  -0.655742  -0.750444  -3.096220  -0.208167   2.274780  -0.519193  -0.396144   4.551330  -1.031330   1.190300  -0.556754   0.003147   1.954690  -1.124550   6.635650  -4.393230  -1.878180   7.626220 -73.017700  15.158000  -0.754393  -2.593650  -1.484720 -13.340700  16.034500   1.501250   7.637550  38.054000  30.437200 -63.209800 -30.538400  -0.000209   0.002090 -10.266900  -0.008061  -0.001141 -32.630300   6.738450 -10.394400 -27.199800   0.001293  -0.004162 -19.029600   0.001920   0.007455 -28.757400   0.589272  -1.077520 -40.786000  -0.002155   0.000764 -27.157900  -0.004099   0.005967 -27.657600  -0.787214   1.508410 -30.101900  -0.002476   0.012080 -20.051900   0.000000  -0.001362 -28.251600  -0.802648   1.500240 -42.393100  -0.003074  -0.000992 -28.233800  -0.000427  -0.000948   8.645210   0.883150   6.127990  68.652400  11.328200  -1.417160   2.289440  -5.980330  11.277500  -9.152560 -25.695300  -2.157340 -35.882600  20.188700  48.831700  29.591700   0.001225  -0.006302   9.795850  -0.003448  -0.004054  23.628000   0.756370   1.728350  19.341200  -0.002725  -0.003833  13.543400  -0.004237  -0.002306  21.246000  -1.953640  -5.013010  21.331100  -0.008791  -0.000699  14.206500  -0.007807  -0.000351  24.726000  -4.142730  -8.912640  25.053900  -0.000383  -0.000144  16.686000  -0.009575  -0.000000  33.847800  -5.506770  -8.144080  51.359500   0.000380   0.000620  34.205500   0.000439   0.007992  -0.614631   2.689010   2.580190   0.311810   0.157246  14.976500  -3.835260  -3.840280   4.792240  -0.000000   0.000000  -0.000000   1.483450   1.814920  -4.917360   0.546840   1.180330  -6.375770 -10.611900   0.904450   3.263050  -0.000000   0.000000  -0.000000
 -0.425634  90.053800  -0.622048  -0.656322  -0.766862  -3.073300  -0.214808   2.287570  -0.514005  -0.409541   4.576960  -1.020640   1.202600  -0.556907   0.003159   1.975380  -1.124970   6.621440  -4.392890  -1.887950   7.597560 -72.984600  15.210900  -0.779539  -2.601160  -1.511740 -13.381800  16.031100   1.478120   7.640000  38.064200  30.446300 -63.199400 -30.538400  -0.000202   0.002088 -10.267000  -0.008060  -0.001144 -32.624500   6.738600 -10.387400 -27.194500   0.001281  -0.004161 -19.029600   0.001914   0.007468 -28.757500   0.589476  -1.067390 -40.788000  -0.002166   0.000653 -27.158000  -0.004122   0.005949 -27.657500  -0.787001   1.518730 -30.096900  -0.002496   0.012126 -20.044600   0.000000  -0.001357 -28.253600  -0.802413   1.510470 -42.396200  -0.003090  -0.000992 -28.235900  -0.000440  -0.000951   8.658740   0.878601   6.122460  68.661900  11.357600  -1.428140   2.306430  -5.996690  11.269600  -9.053430 -25.675000  -2.125310 -35.885200  20.167300  48.822700  29.572200   0.001226  -0.006291   9.786080  -0.003446  -0.004060  23.622000   0.764005   1.746330  19.336600  -0.002732  -0.003832  13.535600  -0.004240  -0.002298  21.273800  -1.954980  -5.007320  21.359300  -0.008808  -0.000687  14.225300  -0.007809  -0.000344  24.728100  -4.135920  -8.902620  25.054200  -0.000377  -0.000129  16.686200  -0.009582  -0.000000  33.843200  -5.500130  -8.134930  51.351900   0.000401   0.000633  34.200400   0.000453   0.008005  -0.615423   2.719480   2.572430   0.310942   0.154150  14.980800  -3.843120  -3.840790   4.775170   0.000000   0.000000   0.000000   1.496190   1.833180  -4.941180   0.544591   1.172560  -6.366040 -10.618400   0.906726   3.252630  -0.000000   0.000000   0.000000
 -0.436419  90.053800  -0.622036  -0.654129  -0.778562  -3.050690  -0.219066   2.295670  -0.511957  -0.418082   4.593210  -1.016310   1.205930  -0.556863   0.003173   1.982590  -1.124940   6.617790  -4.397250  -1.887070   7.582140 -72.965300  15.242400  -0.808606  -2.600220  -1.526400 -13.408700  16.028700   1.464090   7.646430  38.077200  30.464300 -63.196400 -30.531400  -0.000191   0.002099 -10.266900  -0.008051  -0.001163 -32.616800   6.740370 -10.393000 -27.188300   0.001268  -0.004160 -19.029400   0.001902   0.007484 -28.757500   0.589676  -1.069330 -40.781600  -0.002184   0.000503 -27.157100  -0.004156   0.005923 -27.657700  -0.786914   1.512690 -30.084500  -0.002524   0.012191 -20.035900   0.000000  -0.001351 -28.249500  -0.802315   1.504500 -42.389900  -0.003113  -0.000989 -28.231700  -0.000461  -0.000954   8.665990   0.882969   6.122710  68.674100  11.368800  -1.440410   2.321960  -6.009170  11.263000  -8.988590 -25.660200  -2.097730 -35.890800  20.150600  48.810800  29.550200   0.001232  -0.006274   9.775080  -0.003456  -0.004056  23.623200   0.766855   1.752670  19.337600  -0.002742  -0.003826  13.536300  -0.004242  -0.002294  21.277400  -1.948070  -4.986330  21.362200  -0.008835  -0.000667  14.227300  -0.007807  -0.000332  24.731100  -4.127490  -8.885440  25.054600  -0.000366  -0.000108  16.686400  -0.009591   0.000000  33.837800  -5.488610  -8.119710  51.341400   0.000433   0.000651  34.193400   0.000480   0.008019  -0.615201   2.751720   2.559580   0.310108   0.116557  14.990700  -3.843280  -3.813860   4.758620   0.000000   0.000000   0.000000   1.505410   1.854600  -4.954270   0.540137   1.159400  -6.367950 -10.623700   0.907654   3.242740  -0.000000   0.000000   0.000000
 -0.446443  90.053800  -0.621952  -0.650354  -0.789764  -3.025820  -0.222246   2.303170  -0.511358  -0.424415   4.608250  -1.015000   1.206410  -0.556558   0.003191   1.984190  -1.124610   6.617270  -4.404490  -1.884610   7.575540 -72.949300  15.271900  -0.840410  -2.594870  -1.537470 -13.434100  16.026700   1.450650   7.652840  38.099700  30.483200 -63.201400 -30.520700  -0.000178   0.002114 -10.266600  -0.008039  -0.001190 -32.611000   6.744240 -10.401100 -27.184500   0.001251  -0.004159 -19.029200   0.001885   0.007503 -28.757500   0.589795  -1.072000 -40.775100  -0.002207   0.000331 -27.156200  -0.004200   0.005899 -27.657800  -0.786886   1.506660 -30.075600  -0.002557   0.012267 -20.030400   0.000000  -0.001343 -28.245300  -0.802284   1.498530 -42.383600  -0.003141  -0.000982 -28.227500  -0.000488  -0.000958   8.671890   0.891392   6.124470  68.686500  11.371800  -1.453870   2.337070  -6.019460  11.256300  -8.933560 -25.652700  -2.070470 -35.894800  20.136600  48.797500  29.536500   0.001242  -0.006250   9.768230  -0.003473  -0.004049  23.627300   0.767608   1.754140  19.341000  -0.002755  -0.003816  13.538700  -0.004246  -0.002288  21.280900  -1.941140  -4.970230  21.365100  -0.008873  -0.000640  14.229200  -0.007804  -0.000317  24.734000  -4.119910  -8.868740  25.054900  -0.000351  -0.000079  16.686700  -0.009604  -0.000000  33.831100  -5.477160  -8.105150  51.329100   0.000475   0.000674  34.185200   0.000515   0.008039  -0.613810   2.771410   2.549340   0.310023   0.081618  14.997700  -3.843590  -3.786940   4.739530  -0.000000   0.000000   0.000000   1.514290   1.877340  -4.960000   0.534981   1.144420  -6.373880 -10.628800   0.909688   3.230760  -0.000000   0.000000  -0.000000
